<?xml version="1.0" standalone="no"?>
<!DOCTYPE svg PUBLIC "-//W3C//DTD SVG 20010904//EN"
 "http://www.w3.org/TR/2001/REC-SVG-20010904/DTD/svg10.dtd">
<svg version="1.0" xmlns="http://www.w3.org/2000/svg"
 width="1300.000000pt" height="478.000000pt" viewBox="0 0 1300.000000 478.000000"
 preserveAspectRatio="xMidYMid meet">
<metadata>
Created by potrace 1.15, written by Peter Selinger 2001-2017
</metadata>
<g transform="translate(0.000000,478.000000) scale(0.100000,-0.100000)"
fill="#000000" stroke="none">
<path d="M0 2393 c0 -1312 3 -2384 6 -2380 9 9 945 1351 969 1389 22 35 79 78
103 78 8 0 30 -16 49 -37 20 -20 38 -32 41 -26 49 73 463 745 460 747 -1 1
-37 10 -78 20 -590 144 -983 739 -885 1341 99 615 685 1066 1292 996 390 -45
720 -261 917 -598 127 -218 183 -518 142 -768 -66 -396 -312 -721 -679 -895
-56 -26 -131 -56 -167 -66 -36 -9 -67 -19 -69 -20 -3 -3 170 -313 185 -333 2
-2 17 8 34 23 41 34 70 33 104 -3 15 -16 132 -197 260 -402 l232 -374 46 3
c39 3 49 -1 74 -26 16 -16 163 -253 327 -528 163 -274 301 -506 307 -514 6
-10 10 794 10 2373 l0 2387 -1840 0 -1840 0 0 -2387z"/>
<path d="M1657 4334 c-380 -69 -677 -338 -794 -719 -25 -85 -27 -101 -27 -280
0 -179 2 -195 27 -279 56 -181 142 -321 278 -451 153 -147 353 -247 542 -270
l54 -7 41 70 c51 85 88 107 130 75 15 -11 42 -46 60 -77 21 -36 39 -56 51 -56
40 0 195 52 274 91 206 104 368 270 467 482 61 131 82 221 87 387 4 119 1 162
-15 240 -85 411 -406 723 -821 795 -103 18 -250 18 -354 -1z m351 -440 c65
-17 164 -64 206 -98 l30 -23 -59 -84 c-32 -46 -59 -85 -59 -86 -1 -1 -42 19
-91 43 -109 54 -185 70 -258 54 -71 -15 -97 -41 -97 -100 0 -81 27 -98 235
-155 267 -72 365 -162 365 -337 0 -169 -84 -278 -253 -330 -100 -30 -268 -23
-386 17 -73 25 -218 107 -234 132 -5 7 16 36 108 145 l23 27 66 -44 c84 -56
176 -85 270 -85 125 1 188 49 172 133 -11 60 -53 82 -259 138 -210 57 -299
120 -333 235 -47 164 27 330 180 400 98 45 244 52 374 18z"/>
<path d="M4450 2972 c-215 -56 -335 -239 -300 -456 25 -159 107 -237 319 -302
341 -104 351 -109 371 -168 9 -27 8 -42 -4 -70 -22 -53 -77 -76 -186 -76 -107
0 -190 28 -296 99 -43 28 -81 51 -85 51 -5 0 -47 -46 -93 -102 -97 -115 -97
-106 -3 -170 135 -92 270 -136 442 -144 242 -13 418 71 492 233 34 74 43 213
20 294 -42 143 -141 208 -444 295 -193 55 -243 87 -243 155 0 28 27 77 49 89
86 46 209 28 361 -51 55 -29 102 -50 103 -48 20 23 147 214 147 220 0 12 -139
95 -196 118 -131 51 -329 65 -454 33z"/>
<path d="M10400 2967 c-118 -36 -196 -82 -286 -172 -90 -90 -140 -170 -176
-285 -20 -64 -23 -95 -22 -210 1 -117 4 -145 27 -215 37 -112 90 -196 173
-275 86 -81 202 -143 314 -166 109 -23 329 -15 425 16 82 26 200 86 268 135
l47 35 0 290 0 290 -290 0 -290 0 0 -125 0 -125 145 0 145 0 0 -95 0 -95 -37
-19 c-66 -33 -144 -51 -223 -51 -160 0 -286 78 -352 217 -103 218 -20 467 191
570 48 24 68 28 141 28 106 -1 182 -24 269 -82 35 -24 67 -43 71 -43 8 0 193
220 188 224 -177 137 -292 176 -517 175 -111 0 -150 -4 -211 -22z"/>
<path d="M12072 2963 c-21 -39 -552 -1294 -552 -1304 0 -6 56 -9 151 -7 l152
3 57 140 57 140 275 3 276 2 58 -145 58 -145 159 0 c87 0 157 4 155 9 -1 4
-129 304 -283 665 l-279 656 -138 0 c-121 0 -138 -2 -146 -17z m241 -595 l65
-158 -165 0 c-128 0 -164 3 -160 13 3 6 37 91 77 187 40 96 75 181 78 189 3 8
12 -3 23 -30 9 -24 47 -115 82 -201z"/>
<path d="M5570 2311 l0 -661 150 0 150 0 0 194 0 193 173 6 c113 4 192 11 232
22 177 49 301 173 336 336 16 75 6 222 -20 289 -44 114 -140 206 -264 251 -59
22 -79 23 -409 27 l-348 3 0 -660z m611 378 c165 -56 186 -264 36 -350 -38
-22 -56 -24 -194 -27 l-153 -4 0 196 0 196 139 0 c76 0 153 -5 172 -11z"/>
<path d="M7010 2310 l0 -660 480 0 480 0 0 135 0 135 -330 0 -330 0 0 525 0
525 -150 0 -150 0 0 -660z"/>
<path d="M8340 2553 c1 -471 6 -528 64 -650 86 -179 260 -273 511 -273 302 0
487 131 561 395 15 51 18 127 22 503 l4 442 -151 0 -151 0 0 -388 c0 -480 -7
-528 -92 -609 -62 -60 -184 -82 -286 -54 -58 16 -124 78 -153 144 -24 52 -24
55 -27 480 l-3 427 -149 0 -150 0 0 -417z"/>
</g>
</svg>
